<mxfile host="app.diagrams.net" modified="2024-10-04T14:29:19.777Z" agent="Mozilla/5.0 (Windows NT 10.0; Win64; x64) AppleWebKit/537.36 (KHTML, like Gecko) Chrome/129.0.0.0 Safari/537.36" etag="pSC_HCOgzymmcjz7NxqF" version="24.4.9" type="device">
  <diagram name="Strona-1" id="_2xvpcctlX2PVLn-gWZz">
    <mxGraphModel dx="478" dy="260" grid="1" gridSize="10" guides="1" tooltips="1" connect="1" arrows="1" fold="1" page="1" pageScale="1" pageWidth="827" pageHeight="1169" math="0" shadow="0">
      <root>
        <mxCell id="0" />
        <mxCell id="1" parent="0" />
        <mxCell id="sDfKK9MpxoGABcBKHZ0G-1" value="2019-11-14" style="text;html=1;align=center;verticalAlign=middle;whiteSpace=wrap;rounded=0;" vertex="1" parent="1">
          <mxGeometry x="10" width="70" height="30" as="geometry" />
        </mxCell>
        <mxCell id="sDfKK9MpxoGABcBKHZ0G-2" value="2019-11-15 sprzadzenie listy serwisow, ktore byly hostowane na tym ip" style="text;html=1;align=center;verticalAlign=middle;whiteSpace=wrap;rounded=0;" vertex="1" parent="1">
          <mxGeometry x="10" y="30" width="390" height="30" as="geometry" />
        </mxCell>
        <mxCell id="sDfKK9MpxoGABcBKHZ0G-3" value="1. Blad w bibliotece serwera Apache&lt;span style=&quot;background-color: initial;&quot;&gt;&amp;nbsp;&lt;/span&gt;" style="text;html=1;align=center;verticalAlign=middle;whiteSpace=wrap;rounded=0;" vertex="1" parent="1">
          <mxGeometry x="10" y="60" width="390" height="30" as="geometry" />
        </mxCell>
      </root>
    </mxGraphModel>
  </diagram>
</mxfile>
